<?xml version="1.0" encoding="utf-8"?>
<!-- Generator: Adobe Illustrator 23.0.3, SVG Export Plug-In . SVG Version: 6.00 Build 0)  -->
<svg version="1.1" id="logosvg.com" xmlns="http://www.w3.org/2000/svg" xmlns:xlink="http://www.w3.org/1999/xlink" x="0px"
	 y="0px" viewBox="0 0 629.5 189.2" style="enable-background:new 0 0 629.5 189.2;" xml:space="preserve">
<style type="text/css">
	.st0{fill:#1ED760;}
</style>
<path id="logosvg.com_1_" class="st0" d="M96.6,1.1C45,1.1,3.1,43,3.1,94.6c0,51.6,41.9,93.5,93.5,93.5c51.6,0,93.5-41.8,93.5-93.5
	C190.1,43,148.2,1.1,96.6,1.1C96.6,1.1,96.6,1.1,96.6,1.1z M139.4,135.9c-1.7,2.7-5.3,3.6-8,1.9c-21.9-13.4-49.6-16.4-82.1-9
	c-3.1,0.7-6.3-1.3-7-4.4c-0.7-3.1,1.2-6.3,4.4-7c35.6-8.1,66.2-4.6,90.8,10.4C140.3,129.6,141.1,133.2,139.4,135.9z M150.9,110.5
	c-2.1,3.4-6.6,4.5-10,2.4C115.7,97.5,77.4,93,47.7,102c-3.9,1.2-7.9-1-9.1-4.9c-1.2-3.9,1-7.9,4.9-9.1c33.9-10.3,76.2-5.3,105,12.4
	C151.9,102.6,153,107.1,150.9,110.5L150.9,110.5z M151.9,84C121.7,66.1,72,64.4,43.3,73.2c-4.6,1.4-9.5-1.2-10.9-5.8
	c-1.4-4.6,1.2-9.5,5.8-10.9c33-10,87.9-8.1,122.6,12.5c4.2,2.5,5.5,7.8,3.1,12C161.4,85.1,156,86.5,151.9,84L151.9,84z M257.4,87.4
	c-16.1-3.8-19-6.6-19-12.2c0-5.4,5-9,12.6-9c7.3,0,14.5,2.7,22.1,8.4c0.2,0.2,0.5,0.2,0.8,0.2c0.3,0,0.5-0.2,0.7-0.4l7.9-11.1
	c0.3-0.5,0.2-1.1-0.2-1.4c-9-7.2-19.1-10.7-31-10.7c-17.4,0-29.6,10.5-29.6,25.4c0,16,10.5,21.7,28.7,26.1c15.4,3.6,18,6.5,18,11.9
	c0,5.9-5.3,9.6-13.8,9.6c-9.4,0-17.1-3.2-25.7-10.6c-0.2-0.2-0.5-0.3-0.8-0.3c-0.3,0-0.5,0.2-0.7,0.4l-8.8,10.5
	c-0.4,0.4-0.3,1.1,0.1,1.5c10,8.9,22.3,13.6,35.6,13.6c18.8,0,30.9-10.3,30.9-26.1C285.1,99.6,277.1,92.2,257.4,87.4
	C257.5,87.4,257.4,87.4,257.4,87.4z M327.6,71.5c-8.1,0-14.8,3.2-20.3,9.8v-7.4c0-0.6-0.5-1.1-1-1.1h-14.5c-0.6,0-1,0.5-1,1.1V156
	c0,0.6,0.5,1.1,1,1.1h14.5c0.6,0,1-0.5,1-1.1v-25.9c5.5,6.2,12.2,9.2,20.3,9.2c15.1,0,30.4-11.6,30.4-33.9
	C358.1,83.1,342.7,71.5,327.6,71.5L327.6,71.5L327.6,71.5z M341.2,105.4c0,11.3-7,19.2-17,19.2c-9.9,0-17.3-8.3-17.3-19.2
	c0-11,7.5-19.2,17.3-19.2C334.1,86.2,341.2,94.3,341.2,105.4L341.2,105.4z M397.3,71.5c-19.5,0-34.7,15-34.7,34.1
	c0,18.9,15.2,33.8,34.5,33.8c19.5,0,34.8-14.9,34.8-34C431.9,86.4,416.7,71.5,397.3,71.5L397.3,71.5z M397.3,124.8
	c-10.4,0-18.2-8.3-18.2-19.4c0-11.1,7.5-19.1,17.9-19.1c10.4,0,18.3,8.3,18.3,19.4C415.3,116.7,407.7,124.8,397.3,124.8z
	 M473.5,72.8h-15.9V56.6c0-0.6-0.5-1.1-1-1.1h-14.5c-0.6,0-1.1,0.5-1.1,1.1v16.3h-6.9c-0.6,0-1,0.5-1,1.1v12.4c0,0.6,0.5,1.1,1,1.1
	h6.9v32.1c0,13,6.5,19.6,19.2,19.6c5.2,0,9.5-1.1,13.5-3.4c0.3-0.2,0.5-0.5,0.5-0.9V123c0-0.4-0.2-0.7-0.5-0.9c-0.3-0.2-0.7-0.2-1,0
	c-2.8,1.4-5.5,2-8.5,2c-4.6,0-6.7-2.1-6.7-6.8V87.4h15.9c0.6,0,1-0.5,1-1.1V73.9C474.5,73.3,474.1,72.8,473.5,72.8L473.5,72.8
	L473.5,72.8z M528.9,72.9v-2c0-5.9,2.3-8.5,7.3-8.5c3,0,5.4,0.6,8.1,1.5c0.3,0.1,0.7,0.1,0.9-0.1c0.3-0.2,0.4-0.5,0.4-0.9V50.7
	c0-0.5-0.3-0.9-0.7-1c-2.9-0.9-6.5-1.7-12-1.7c-13.3,0-20.4,7.5-20.4,21.7v3.1h-6.9c-0.6,0-1.1,0.5-1.1,1.1v12.5
	c0,0.6,0.5,1.1,1.1,1.1h6.9v49.6c0,0.6,0.5,1.1,1.1,1.1h14.4c0.6,0,1.1-0.5,1.1-1.1V87.4h13.5l20.7,49.6c-2.3,5.2-4.7,6.2-7.8,6.2
	c-2.5,0-5.2-0.8-8-2.3c-0.3-0.1-0.6-0.2-0.8-0.1c-0.3,0.1-0.5,0.3-0.6,0.6l-4.9,10.7c-0.2,0.5,0,1.1,0.5,1.4c5.1,2.8,9.7,4,15.4,4
	c10.7,0,16.6-5,21.8-18.4l25.1-64.8c0.1-0.3,0.1-0.7-0.1-1c-0.2-0.3-0.5-0.5-0.9-0.5h-15c-0.5,0-0.9,0.3-1,0.7l-15.4,44l-16.9-44
	c-0.2-0.4-0.5-0.7-1-0.7L528.9,72.9L528.9,72.9L528.9,72.9z M496.8,72.8h-14.5c-0.6,0-1.1,0.5-1.1,1.1v63c0,0.6,0.5,1.1,1.1,1.1
	h14.5c0.6,0,1.1-0.5,1.1-1.1v-63C497.8,73.3,497.4,72.8,496.8,72.8C496.8,72.8,496.8,72.8,496.8,72.8z M489.6,44.1
	c-5.7,0-10.4,4.6-10.4,10.4c0,5.7,4.6,10.4,10.4,10.4S500,60.2,500,54.5C500,48.7,495.3,44.1,489.6,44.1z M616.2,93.1
	c-5.7,0-10.2-4.6-10.2-10.2c0-5.6,4.5-10.2,10.2-10.2c5.7,0,10.2,4.6,10.2,10.2C626.4,88.4,621.9,93.1,616.2,93.1z M616.3,73.7
	c-5.2,0-9.2,4.1-9.2,9.2c0,5.1,3.9,9.2,9.1,9.2c5.2,0,9.2-4.1,9.2-9.2C625.4,77.8,621.5,73.7,616.3,73.7z M618.5,83.9l2.9,4H619
	l-2.6-3.7h-2.2v3.7h-2V77.3h4.8c2.5,0,4.1,1.3,4.1,3.4C621,82.4,620,83.5,618.5,83.9L618.5,83.9z M616.8,79.1h-2.6v3.4h2.6
	c1.3,0,2.1-0.6,2.1-1.7C618.9,79.7,618.1,79.1,616.8,79.1z"/>
</svg>
