<?xml version="1.0" encoding="utf-8"?>
<!-- Generator: Adobe Illustrator 21.0.0, SVG Export Plug-In . SVG Version: 6.00 Build 0)  -->
<svg version="1.1"
	 id="logo" inkscape:version="0.92.0 r15299" sodipodi:docname="the cheesecake factory.svg" xmlns:cc="http://creativecommons.org/ns#" xmlns:dc="http://purl.org/dc/elements/1.1/" xmlns:inkscape="http://www.inkscape.org/namespaces/inkscape" xmlns:rdf="http://www.w3.org/1999/02/22-rdf-syntax-ns#" xmlns:sodipodi="http://sodipodi.sourceforge.net/DTD/sodipodi-0.dtd" xmlns:svg="http://www.w3.org/2000/svg"
	 xmlns="http://www.w3.org/2000/svg" xmlns:xlink="http://www.w3.org/1999/xlink" x="0px" y="0px" viewBox="0 0 400 300"
	 style="enable-background:new 0 0 400 300;" xml:space="preserve">
<style type="text/css">
	.st0{fill:#A18D44;}
</style>
<path id="logo_1_" class="st0" d="M99.1,66.3c0.9-1.9,1.9-3.9,4-7.1c0.3,0,1.3-0.7,2,0.8c10.1,0.1,15.1,0.1,19,0
	c0.7,0,1.5-0.5,1.8-0.8c0.3-0.2,1.2-0.4,1.5,0.5c0.2,0.9-2.8,6.3-3,7.4c-1.5,2.6-1.9-0.5-2.8-2.4c-0.9-1.9-4.5-1.5-4.8,0.3
	c-0.3,1.9-0.1,15.9,0.3,18c0.1,0.7,0.3,1.8,1.6,2.4c1.6,0.7,1.6,2.5-0.2,2.5c-1.1,0-3.1,0.1-4.8,0.1c-1.7,0-3.5,0-5.1,0
	c-1.1,0-1.6-1.8-0.3-2.5c0.9-0.4,1.4-1.4,1.4-2.4c0.2-6.2,0.1-14.9-0.5-18.4c-0.4-1.9-3-1.4-4.9-0.2c-1.7,1.1-3,2.8-3.4,3.2
	C100.3,68.4,97.7,69.3,99.1,66.3z M128.9,66.5c0.2,2.1,0,16.1,0,17.5c0,1.3-1.4,1.4-1.6,2.1c-0.3,0.9-0.1,1.6,1.3,1.6h7.5
	c1.7,0,1.1-1.7-0.4-2.6c-0.4-0.2-0.8-1.1-0.8-1.9c0-3.3,0-7.7,0.1-8.3c1-1.8,2.5-2,3.7-0.8c1.9,2.1,3.9,7,3.9,11.7
	c0,2.7,0.3,4.6-1.5,7c-0.6,0.7-2.5,2.7,0.8,1.6c4.2-2.2,4.4-5.7,4.9-9.1c0.6-4.1-0.1-8.2-1.8-11.6c-1.4-2.7-2.2-4.2-4.9-4.6
	c-1.8-0.3-3.1,1.2-5.2,2.3c0-5-0.1-9-0.1-10.4c0-1.7-0.6-1.7-1.7-0.9c-0.9,0.6-3,1.7-5.6,3.5C126.3,65.8,128.7,65.4,128.9,66.5z
	 M147.6,79.9c-0.5-5.4,3.4-11.3,11.4-10.3c5.4,0.7,6.8,6.4,7,7.1c-6.3,2.7-11,3.9-11.7,4.1c0.1,0.6,1.2,3.8,3.9,4.7
	c1.5,0.5,4.2,0.4,6.9-1.8c1.1-0.9,2.6-0.6,1,1.5c0,0-2.9,3.1-7.5,3.2C151.6,88.6,148,84.5,147.6,79.9z M153.8,78.2
	c2.6-0.1,4.1-1.2,6.4-2.1c-1.1-3.4-2.7-4.6-5-4.2C152.9,72.4,152.3,77.3,153.8,78.2z M313.6,80.5c1.2,0.6,3.9,0.7,4.1,2.8
	c0,27.4-0.1,40-0.1,42.3c0,3-4.4,2.9-4.4,4.9c0,1.6,0.3,3,2.4,3c2.2,0,12.8,0.1,15.2,0.1c1.3,0,2.7-1.5,2.3-2.8
	c-0.3-1.1-2.3-2.1-2.9-2.3c-1.2-0.4-1.7-2.5-1.8-3.6c-0.1-1,0-4.2,0-5.4c0-1.2,2.9-4.4,4.5-4.4c0.3,0,1.2,0.8,1.8,1.9
	c2.5,4.4,7.3,16.7,8.5,16.7c2,0,9.1,0,10.8,0c2.2,0,4-2.7,1.1-4.5c-0.7-0.4-2.1-1-3.2-2c-1.2-1.1-2.1-2.8-3.4-5.6
	c-3.1-6.2-5.1-9.6-6.1-11.9c-0.6-1.3-1-2.3-1-3c0.2-1.4,3.9-4.3,6.4-4.6c4.1-0.6,2.9-4.6,0-4.6c-6.9,0.1-9.7-0.1-12.1,0
	c-4.3,0.1-2.7,3.3-2.8,3c0.2,0.5,3,1.1,2.9,2.3c-0.1,1.5-1.5,3.3-2.3,4.1c-1,1-1.7,2.2-3.4,3.6c-0.7,0.6-1.2,0-1.2-0.5
	c-0.3-16.7,0.2-33.8,0.2-38.2c0-3.3-2.8-1.6-4.2-0.9c-1.9,1-9.9,5.3-11.5,6.3C312.2,77.8,312.5,79.9,313.6,80.5z M164.5,96.8
	c-3,0.1-8.3,0.7-10.6,6.3c-1.3,3.2-0.3,6.4,0.1,7.6c2.4,5.9,11,7.1,15.5,8.7c5.8,2.1,8.2,2.8,7.8,5.4c-0.3,2.3-3.1,4.7-12,2.9
	c-3.6-0.7-7.9-3.8-10.7-6.6c-1-1-2.9-0.2-2.3,2c0.6,2.2,6,11,6.5,11.9c0.6,1,2.2,1.5,2.8,0.3c0.6-1,0.9-2.1,2.2-2.3
	c1.5-0.3,4.3,0.3,8.1,0.8c5,0.5,9.9-0.2,13-2.6c3.1-2.4,4.4-6.5,3.9-10c-0.8-6.1-5.5-8.9-12.3-10.6c-4.6-1.2-9.4-2.4-11.1-3.5
	c-1.7-1.2-2.1-2.9-0.7-4.5c1.9-2,6.4-1.3,8.6-0.7c3,0.7,5.6,2,8.9,4.8c1.9,1.6,2.9,1.4,3.4,1c1.5-1.3-1.3-3.7-3.1-7.1
	c-2.2-4.1-2.9-5.5-4.3-5.1c-1.2,0.4-2.5,2.6-3.5,2.5C172.1,97.8,170.7,96.7,164.5,96.8z M248.7,134.6c13.3-0.7,16.3-7.8,17.6-10.1
	c0.8-1.5-1.8-3.6-3.5-1.3c-4.1,5.6-9.8,6.4-13.1,5.3c-5.7-1.7-7.8-6.2-8.6-13.2c-0.7-6.2,1.4-14.2,8.2-14c7.3,0.2,7.6,8.5,8.5,10.1
	c0.9,1.7,2.3,1.6,3.3-0.5c0.9-2,1.8-4.9,3.1-7.1c1.2-2.1,0.1-3.1-1.5-4c-3.4-1.8-6.8-3.2-13.2-3.2c-8.3,0.1-20.2,5-20.5,19.1
	C228.6,130,240,134.3,248.7,134.6z M89.7,120.3c0.9,2.6,3.9,6.3,7.6,7.4c5.2,1.5,10.4-1.3,13.7-3.8c1.7-1.4,3.6-0.1,2.2,2.6
	c-1,1.8-6.4,6.8-16.5,7.4c-14.9,0.7-21.8-11-20.4-21.2c1-7.4,7.4-15,16.1-15.8c8.7-0.7,12,1.7,14.5,3.8c2.9,2.5,6.5,9,5.2,10.5
	c-1.4,1.5-15.2,4.9-20.5,7.1C90.5,118.6,89.2,118.9,89.7,120.3z M100.2,110.6c0.9-1.5-1.8-10.1-8.3-9.2c-2.3,0.3-4,2.2-4.7,4.9
	c-0.8,3.5,0.1,8.2,1.2,8.8C89.5,115.4,99.5,111.8,100.2,110.6z M267.8,123.2c0.7-5.6,3.4-8.3,8.4-10.5c3.1-1.4,9.7-1.8,12.1-1.8
	c1.1,0,0.3-1.8,0.2-2.3c-1.5-6.3-6.4-6.6-10.5-5.2c-2.4,0.9-4.6,2.6-5.2,3c-1.8,0.9-3.4-1.2-1.8-3.2c5.2-6.3,9.7-6.4,14.6-6.5
	c2.9-0.1,9.6,0.6,12.5,8.1c2.9,7.4,6,18.2,7.3,20.5c1.3,2.3,3.3,3.3,4.5,2.2c1.1-1,1.8,0.5,1.8,1.8c0,1.6-1.3,3.7-4.9,4.6
	c-3.4,0.8-8-0.5-9.2-1.5c-1.1-0.9-1.7-2.2-2.6-2.2c-2.5,0.2-5,3.7-13,4.1C272,134.8,267.1,128.5,267.8,123.2z M279.4,123
	c1,3.4,3.2,6.5,9.4,5.2c6.2-1.3,3.2-8.6,2.5-10.1c-0.6-1.5-1.3-2.4-2.7-2.6c-1.5-0.1-3.6-0.2-5.7,0.7
	C280.9,117.1,278.6,119.9,279.4,123z M164.3,185.1c-0.8-2.5-1.8-5.9-2.3-8c-1.5-6.4-2.2-10.4-8.3-5.1c0,0-0.4,0.7-1.1,0.7
	c-0.7,0-13.3,0.3-14.1-0.5c-0.8-0.8-0.6-7.7-0.4-11.1c0.2-3.4-1.8-8.4,9.7-8.9c7.7-0.4,17.6-1.2,25.6-0.5c7.5,0.6,13.5,1.8,17.5,3.7
	c4.1,1.9,6.9,0.3,8.1-0.4c0.4-0.2,2-1.8,1.5-4.3c-0.5-2.5-0.7-5.7-2.9-8c-1.8-1.9-6.9-2.3-10.3-2.8c-10.8-1.5-29.1,0.5-43.8,2.9
	c4.5-0.7-20.8,4.7-31.3,3.4c-5.2-0.6-8.6-1.4-10.8-2.1c-0.4-0.8-1.4-1.3-2.3-0.9c-1.1-0.6-1.6-1.1-1.8-1.4c-0.3-0.5-1.7-3-4.4-2.9
	c-4.4,0.2-8.4,3.6-6.9,10.1c0.4,1.7,1.3,3.2,2.6,4.3c-4.3,3.3-10.1,6.4-17.8,7.6c-13.6,2-26.8-4.5-33.6-13
	c-9.5-11.8-10.2-25.7-10.6-31.2c-0.3-29,13.7-47.9,30.6-48.3c7.2-0.3,13.3,2.5,18.6,6.2c12.2,8.7,13,18.8,17.6,20.6
	c2.1,0.9,6.6-0.3,6.6-2.9c0-6.2-3.9-11.2-7.9-20.3c-3.1-7-5.7-13.8-6.8-14.8c-0.5-0.2-2.7-0.2-3.2,0.1c-0.9,0.6-2.1,2.3-3.6,3.7
	c-1.4,1.2-1.3,2-2.3,2.3c-1,0.3-2.6-0.3-3.9-0.7C67.6,61.1,62.3,60,56.8,60c-13.3,0-30.1,5.9-41.9,26c-5,8.6-7.2,14.9-8.2,25
	C6,119.1,6.8,129,9.8,136.9c5.6,15,20.5,32.1,42.5,34.1c9.3,0.8,22.3-0.8,29.6-4.8c5.1-2.9,9.3-6.8,12.5-10.4c2.3,0.5,5,0.6,8.2,0.4
	c2.7-0.2,7.7-0.1,11.1-0.8c4.3-0.9,7.1-1.3,8.3-0.5c0.8,0.5,1.1,2.9,1.1,6.7c0.3,15.7,0.1,57.3-0.4,62.2c-0.3,2.7-3.1,8.3-5.8,13.7
	c-1.7,3.4,1.5,7,4.6,4.9c2.4-1.6,13.3-9.9,19-13.1c1.8-1,2.2-3.7,0.4-5.4c-1.8-1.7-2.8-3.6-2.8-7.7c-0.1-20.3-0.1-26.5-0.1-29.7
	c0-2.5,0-3,1.8-3.1c1.8-0.1,13.2-0.3,14.7,0c1.5,0.3,3.8,2.3,5.9,3.7C161.9,188,165.2,187.6,164.3,185.1z M267.2,203.5
	c-1.9,1.1-3.9,2.7-6,2.2c-1.8-0.4-2.5-2-2.7-4.3c-0.3-2.4-0.2-16.5-0.2-17.8c0-1.3,0-2.1,1-2.3c0.9-0.1,8.7-0.1,10-0.1
	c0.4,0,1.2-4.1,1.3-4.6c0.1-0.5,0-1-1-1.1c-0.9-0.1-8.8,0.3-11.1-0.4c-0.6-5.1-0.3-10.3-0.3-12c0-1.4-1.3-2.4-2.8-1
	c-1.7,1.7-5.6,8-13,15.3c-1.4,1.4-1.7,4,1,4c0.1,0,2.5-0.1,3.1-0.1c0.6,0,1.2,0.3,1.2,0.9c0,0.3,0.2,7.4,0.2,12.1
	c0,8.1-1.3,9.6-0.7,11.5c1.1,3.9,5.7,5.8,10.4,6c5.4,0,10-2.2,11.9-4.1C272.3,204.9,270.8,201.4,267.2,203.5z M387.1,179.4
	c0.9-0.5,1.4-3.6-0.7-3.9c-2.2-0.2-14.8-0.4-16.3,0.2c-1.6,0.6-1,3.1,0.6,4c0.8,0.4,2.2,0.9,2.6,1.8c0.4,0.9,0.2,2.7-0.4,4.4
	c-2,6.4-5.4,12.2-5.7,12.3c-0.3,0.1-2.1-3.6-4-7.6c-1.7-3.8-3.1-7.5-3.2-8.2c-0.3-1.4,0.8-2.7,2.4-2.9c1.6-0.2,1.7-3.8-0.9-4
	c-1.3-0.1-4.4,0-7.1,0.1c-3.4,0.2-7.5-0.2-9-0.1c-1.8,0.2-2.6,3.5,0,4.6c2.7,1.2,3.4,3,3.8,4c1.5,3.3,9.3,21.6,11.1,24.7l0.3,0.7
	c-9.6,12.9-16.1,17.8-21.9,20.1c-3.6,1.4-6.8,1.1-9.1,0.1c-3.2-1.3-3.6-6.1-3.2-6.9c1.1-2.3-2.2-3.7-5.8-2.7
	c-3.5,0.9-6.8,4.8-4.6,9.8c2.5,6,10.4,9,20.4,6.8c8.7-2,17.7-7,26.2-16.4c6.3-6.7,9.5-12,13.3-18.9c4.3-7.8,7.4-17.2,7.8-18.2
	C384.3,181.5,386.2,179.9,387.1,179.4z M328.4,207.5c-2-1.1-3.4-1.9-3.6-3.6c-0.8-5.4-0.4-10.2,0.2-13.5c0.3-1.4,1.6-3.8,3.8-4.6
	c1.5-0.6,3.2-0.8,5.3,1.5c0,0,1,1.6,1.7,2.4c0.7,0.7,2.7,0.3,3-1.6c0.4-1.9,1.7-6.1,2.7-8.7c0.9-2.2,1-4.5-5-3.9
	c-6.4,0.7-8.9,4.7-10.4,6.6c-0.8,1-1.4,0.7-1.4,0.2c0-0.4,0-3.2-0.1-4.5c-0.2-4.1-3.7-1.6-7.2,0.4c-3,1.7-7,4.2-7.6,4.7
	c-0.6,0.4-0.7,2.3,0.8,3c1,0.4,2,0,2.9,0.8c0.4,0.4,0.6,1.9,0.6,3.3c-0.1,3.8,0.2,12.6-0.3,14.4c-0.5,1.8-2.8,1.7-4.3,3.2
	c-1.5,1.5-0.7,4,1.5,3.9c2.2,0,14,0.1,15.7,0.1C329.5,211.8,330.1,208.5,328.4,207.5z M300.2,210.7c-15.9,4.2-30.4-1.8-30.4-16.9
	c-0.2-10,6.4-18.4,17.4-19.3c8.2-0.7,15,2.9,19.2,8C314.1,191.8,313.9,206.4,300.2,210.7z M297.3,188.2c-2.4-5.5-6.8-10.7-12.3-9.3
	c-4.4,1.1-6.5,7.3-2.6,17.5c2.6,6.6,7.5,13,14.1,9.9C300.5,204.4,301.1,197.2,297.3,188.2z M54.5,153.1c-1.8,1.2-0.2,3,1.2,2.5
	c3.9-1.2,6.9-3.7,9.3-6.5c1.3-1.5,5.9-6.1,8.4-13.7c2.5-7.6,1.9-12.7,1.9-15.8c0-8.6-5.6-21.9-13.6-22.3c-2.4-0.1-6.1,0.8-8.2,3.6
	c-0.5,0.6-1.6,0.7-1.6-0.1c0-0.8,0-20.5,0-21.5c0-1.1-1.7-0.8-2.3-0.4c-0.7,0.4-10.9,7.1-11.9,7.8c-0.9,0.7-1,2.4,0.1,2.9
	c1.1,0.5,3.7,1.2,3.7,2.6c-0.1-1.3,0.3,26.7-0.3,33.5c-0.3,3.1-3,3.8-4,4.6c-1,0.7-0.3,3.5,1.4,3.5c1.7,0,14,0.2,15.3,0.2
	c1.3,0,3.1-1.6,2-3.5c-0.8-1.2-2.9-1.2-3.7-3.9c-1-3.3-0.4-13.9,0.1-17.3c0.2-1.6,0.9-2.6,2.4-3.4c1.5-0.7,2.6-0.4,3.4,0.3
	c1.4,1.1,2.5,3.7,3.1,4.9c1.5,3.3,3.5,11.4,3.5,17.8C64.7,147,56.3,151.9,54.5,153.1z M190.7,113c1-7.4,7.4-15,16.1-15.8
	c8.7-0.7,12,1.7,14.5,3.8c2.9,2.5,6.5,9,5.2,10.5c-1.3,1.5-15.1,4.9-20.5,7.1c-1,0.4-2.3,0.7-1.8,2.1c0.9,2.6,3.9,6.3,7.6,7.4
	c5.2,1.5,10.4-1.3,13.7-3.9c1.7-1.4,3.6-0.1,2.2,2.6c-1,1.8-6.5,6.8-16.5,7.4C196.2,134.8,189.3,123.1,190.7,113z M202.8,115.3
	c1.1,0.5,11.2-3.2,11.9-4.4c0.9-1.5-1.8-10.1-8.3-9.3c-2.3,0.3-4.1,2.2-4.7,4.9C200.8,110.1,201.7,114.8,202.8,115.3z M351.7,113
	c1-7.4,7.4-15,16.1-15.8c8.6-0.7,12,1.7,14.5,3.8c2.9,2.5,6.5,9,5.2,10.5c-1.4,1.5-15.1,4.9-20.5,7.1c-1,0.4-2.3,0.7-1.8,2.1
	c0.9,2.6,3.9,6.3,7.6,7.4c5.2,1.5,10.4-1.3,13.7-3.9c1.7-1.4,4.3-0.6,2.8,2.1c-1,1.8-6.8,7.5-17.1,7.8
	C357.2,134.5,350.4,123.1,351.7,113z M363.9,115.3c1.1,0.5,11.2-3.2,11.9-4.4c0.9-1.5-1.8-10.1-8.3-9.3c-2.3,0.3-4.1,2.2-4.7,4.9
	C361.8,110.1,362.8,114.8,363.9,115.3z M206.4,207c0,1.6-1.3,4-4.9,4.8c-3.4,0.8-8.4-0.3-9.5-1.8c-0.8-1.1-1.5-2.2-2.4-2.2
	c-2.6,0.2-5,3.7-13,4.1c-10.1,0.6-15-5.7-14.3-11c0.7-5.6,3.4-8.3,8.4-10.5c3.1-1.4,9.7-1.8,12.1-1.8c1.1,0,0.3-1.8,0.2-2.3
	c-1.5-6.3-6.4-6.6-10.5-5.2c-2.4,0.9-4.6,2.6-5.2,3c-1.8,0.9-3.4-1.2-1.7-3.2c5.2-6.3,9.7-6.4,14.6-6.5c2.9-0.1,9.6,0.6,12.5,8.1
	c2.9,7.4,6,18.2,7.3,20.5c1.3,2.3,3.3,3.3,4.5,2.2C205.7,204.3,206.4,205.7,206.4,207z M185.9,195.8c-0.6-1.5-1.3-2.4-2.7-2.6
	c-1.5-0.1-3.6-0.2-5.7,0.7c-2,0.9-4.4,3.7-3.5,6.8c1,3.4,3.2,6.5,9.4,5.2C189.6,204.7,186.6,197.3,185.9,195.8z M238.3,201.2
	c-4.1,5.6-9.7,6.3-13.1,5.3c-5.7-1.7-7.8-6.1-8.6-13.2c-0.7-6.2,1.4-14.2,8.2-14.1c7.3,0.2,7.6,8.5,8.5,10.2
	c0.9,1.7,2.3,1.5,3.3-0.5c0.9-2,1.8-4.9,3.1-7.1c1.2-2.1,0.1-3.1-1.5-4c-3.3-1.8-6.8-3.2-13.1-3.2c-8.3,0.1-20.2,5.1-20.5,19.2
	c-0.3,14.1,11.1,18.5,19.8,18.7c13.4-0.7,16.3-7.8,17.6-10.1C242.6,200.9,240,198.8,238.3,201.2z M127.5,120.7
	c0.9,2.6,3.9,6.3,7.6,7.4c5.2,1.6,10.5-1.3,13.7-3.9c1.7-1.4,3.6-0.1,2.2,2.6c-1,1.8-6.5,6.8-16.5,7.4c-14.9,0.7-21.8-11-20.4-21.2
	c1-7.4,7.4-15,16.1-15.7c8.7-0.7,12,1.7,14.5,3.8c2.9,2.5,6.6,9,5.2,10.5c-1.4,1.5-15.2,4.9-20.5,7.1
	C128.3,119,127,119.3,127.5,120.7z M138,111c0.9-1.5-1.8-10.1-8.4-9.3c-2.3,0.3-4,2.2-4.7,4.9c-0.9,3.5,0.1,8.2,1.2,8.8
	C127.3,115.8,137.3,112.2,138,111z M393.5,206.1c0,2.8-2.3,4.9-4.9,4.9c-2.7,0-4.9-2.1-4.9-4.9c0-2.8,2.3-4.8,4.9-4.8
	C391.3,201.3,393.5,203.3,393.5,206.1z M392.6,206.1c0-2.3-1.7-4-3.9-4c-2.2,0-4,1.7-4,4c0,2.3,1.8,4.1,4,4.1
	C390.8,210.2,392.6,208.5,392.6,206.1z M389.4,206.4l1.6,2.5h-0.9l-1.5-2.4h-1v2.4h-0.8v-5.6h2.1c1.3,0,2,0.5,2,1.6
	C390.9,205.9,390.2,206.3,389.4,206.4z M388.6,205.8c0.7,0,1.4-0.1,1.4-0.9c0-0.7-0.6-0.8-1.2-0.8h-1.2v1.7H388.6z"/>
</svg>
