<?xml version="1.0" encoding="utf-8"?>
<!-- Generator: Adobe Illustrator 21.0.0, SVG Export Plug-In . SVG Version: 6.00 Build 0)  -->
<svg version="1.1" id="uber" xmlns="http://www.w3.org/2000/svg" xmlns:xlink="http://www.w3.org/1999/xlink" x="0px" y="0px"
	 viewBox="0 0 400 300" style="enable-background:new 0 0 400 300;" xml:space="preserve">
<path id="u" d="M71,112.6v43.3c0,14.5-6.4,20.5-21.4,20.5c-15,0-21.4-6-21.4-20.5v-45.2H13.7c-1.3,0-1.9,0.6-1.9,1.9v44
	c0,24.2,15.4,32.6,37.8,32.6c22.4,0,37.8-8.5,37.8-32.6v-45.9H72.9C71.6,110.7,71,111.3,71,112.6"/>
<path id="b" d="M162.9,175.5h-28.5v-14.1c0-4.7,2.6-6.9,9.6-6.9h18.9c9.1,0,11.6,3.5,11.6,10.6C174.5,172.2,172,175.5,162.9,175.5z
	 M134.4,123.1h25.5c8.5,0,10.9,3.2,10.9,9.9c0,6.7-2.4,9.9-10.9,9.9h-25.5V123.1z M178.1,147.2c6.3-3.3,8.9-9.6,8.9-16.9
	c0-17.1-13.9-19.6-28.3-19.6h-32.9c-5.5,0-7.5,1.7-7.5,5.4v67.2c0,3.2,1.6,4.6,5.8,4.6h40.5c15.2,0,26.1-5.9,26.1-21.3
	C190.7,157.3,186.8,149.5,178.1,147.2L178.1,147.2z"/>
<path id="e" d="M280.6,123.3c1.2,0,1.7-0.4,2.1-1.3l4.2-10.4c0.2-0.6,0-0.9-0.6-0.9H228c-5.5,0-7.5,1.7-7.5,5.4v67.2
	c0,3.2,1.6,4.6,5.8,4.6h54.3c1.2,0,1.7-0.4,2.1-1.3l4.2-10.4c0.2-0.6,0-0.9-0.6-0.9h-49.7v-13.7c0-4.7,2.6-6.9,9.6-6.9h21.6
	c1.2,0,1.7-0.4,2.1-1.3l4-10c0.2-0.6,0-0.9-0.6-0.9h-36.7v-19.4H280.6"/>
<path id="r" d="M357.6,146.5h-26.9v-23.4h26.9c10,0,12.2,3.9,12.2,11.7C369.9,142.7,367.7,146.5,357.6,146.5z M387.8,186.5
	l-17.3-29.7c8.6-2.2,15.6-7.9,15.6-22.4c0-18.7-11.6-23.8-30.8-23.8h-33c-5.5,0-7.5,1.7-7.5,5.4V186c0,1.3,0.6,1.9,1.9,1.9h14.1
	v-22.5c0-4.7,2.6-6.9,9.6-6.9h14.2l15.6,28.1c0.5,0.8,0.9,1.3,2.1,1.3h14.7C388.1,187.9,388.1,187,387.8,186.5L387.8,186.5z"/>
</svg>
